<?xml version="1.0" encoding="UTF-8"?>
<svg id="Layer_2" data-name="Layer 2" xmlns="http://www.w3.org/2000/svg" viewBox="0 0 1079.35 241.98">
  <defs>
    <style>
      .cls-1 {
        font-family: Xeroda-Light, Xeroda;
        font-size: 206.12px;
        font-weight: 300;
      }

      .cls-1, .cls-2 {
        stroke: #000;
        stroke-miterlimit: 10;
      }

      .cls-3 {
        stroke-width: 0px;
      }
    </style>
  </defs>
  <g id="Layer_1-2" data-name="Layer 1">
    <text class="cls-1" transform="translate(193.77 200.05)"><tspan x="0" y="0">thestack(s);</tspan></text>
    <circle class="cls-2" cx="657.81" cy="148.16" r="8.5"/>
    <path class="cls-3" d="M89.08,72.1c-.32-.15-.65-.29-.94-.47-.3-.18-.46-.47-.41-.87h5.09c.11.33-.02.61-.27.78-.33.22-.72.38-1.08.56h-2.39Z"/>
    <path class="cls-3" d="M90.3,64.29c-.89,0-1.78-.04-2.67,0-1.59.09-3.06-1.06-3.08-3.02,0-.65-.1-1.3-.13-1.95-.03-.45-.23-.81-.52-1.13-.55-.6-1.11-1.18-1.64-1.79-1.7-1.94-2.49-4.22-2.6-6.78-.12-2.8.71-5.26,2.46-7.42.97-1.2,2.17-2.1,3.54-2.79,2.78-1.38,5.69-1.48,8.49-.36,3.12,1.24,5.39,3.52,6.33,6.83,1.18,4.13.38,7.86-2.6,11.05-.31.33-.6.68-.93.99-.56.52-.81,1.17-.84,1.92-.02.53-.06,1.06-.08,1.59-.05,1.69-1.24,2.86-2.93,2.86-.93,0-1.86,0-2.79,0ZM90.21,61.88s0,.07,0,.1c.94,0,1.89,0,2.83,0,.43,0,.57-.15.59-.57.02-.48.07-.96.07-1.43.03-1.46.52-2.71,1.59-3.75.64-.63,1.26-1.3,1.79-2.03,1.5-2.08,1.79-4.43,1.33-6.88-.8-4.29-5.38-7.36-9.64-6.46-7.05,1.49-8.44,9.38-5.04,13.63.58.73,1.22,1.4,1.85,2.09.61.68,1.06,1.43,1.15,2.36.07.79.11,1.59.15,2.38.02.47.08.56.56.57.93,0,1.86,0,2.79,0Z"/>
    <path class="cls-3" d="M90.28,70.33c-.92,0-1.83,0-2.75,0-.76,0-1.31-.5-1.31-1.2,0-.69.54-1.18,1.32-1.18,1.83,0,3.67,0,5.5,0,.79,0,1.32.47,1.32,1.17,0,.73-.52,1.2-1.33,1.2-.92,0-1.83,0-2.75,0Z"/>
    <path class="cls-3" d="M90.28,65.24c.98,0,1.97-.03,2.95,0,.93.04,1.43,1.01.97,1.8-.23.39-.59.57-1.03.57-1.91,0-3.83.01-5.74,0-.69,0-1.2-.54-1.2-1.18,0-.66.49-1.18,1.19-1.19.96-.02,1.91,0,2.87,0h0Z"/>
    <path class="cls-3" d="M79.66,40.86c-.07.51-.26.88-.69,1.1-.45.23-.93.22-1.3-.12-.75-.69-1.48-1.41-2.17-2.16-.43-.46-.35-1.2.09-1.63.44-.43,1.17-.47,1.63-.04.72.68,1.43,1.39,2.11,2.12.18.19.24.48.35.73Z"/>
    <path class="cls-3" d="M105.36,39.07c-.09.18-.2.52-.42.76-.59.65-1.22,1.26-1.85,1.87-.54.53-1.31.53-1.78.04-.46-.48-.44-1.22.07-1.75.63-.65,1.26-1.29,1.91-1.92.39-.38.86-.46,1.36-.23.46.21.65.6.71,1.24Z"/>
    <path class="cls-3" d="M91.48,33.88c0,.46,0,.93,0,1.39-.02.67-.5,1.16-1.15,1.18-.65.02-1.21-.44-1.23-1.1-.03-1-.03-1.99,0-2.99.02-.66.59-1.13,1.23-1.11.65.02,1.13.51,1.16,1.18,0,.03,0,.05,0,.08,0,.45,0,.9,0,1.36Z"/>
    <path class="cls-3" d="M106.31,51.67c-.46,0-.93,0-1.39,0-.68-.01-1.19-.52-1.2-1.18,0-.65.5-1.2,1.17-1.21.96-.02,1.91-.02,2.87,0,.67.01,1.17.57,1.16,1.22-.02.65-.51,1.15-1.17,1.16-.48.01-.96,0-1.43,0Z"/>
    <path class="cls-3" d="M74.26,51.67c-.46,0-.93,0-1.39,0-.69,0-1.19-.5-1.2-1.17-.01-.69.48-1.21,1.19-1.22.93-.01,1.86-.01,2.79,0,.68,0,1.22.57,1.22,1.22,0,.67-.53,1.17-1.25,1.17-.45,0-.9,0-1.35,0Z"/>
    <path class="cls-3" d="M90.21,61.88c-.93,0-1.86,0-2.79,0-.47,0-.53-.1-.56-.57-.04-.8-.07-1.59-.15-2.38-.09-.92-.54-1.68-1.15-2.36-.62-.69-1.27-1.36-1.85-2.09-3.39-4.25-2.01-12.14,5.04-13.63,4.26-.9,8.84,2.17,9.64,6.46.46,2.45.17,4.8-1.33,6.88-.53.73-1.15,1.4-1.79,2.03-1.06,1.04-1.56,2.28-1.59,3.75,0,.48-.05.96-.07,1.43-.02.42-.16.57-.59.57-.94,0-1.89,0-2.83,0,0-.03,0-.07,0-.1Z"/>
    <g>
      <path class="cls-3" d="M85.54,159.58c.21,1.65,2.77,3,4.3,4.49,1.46-1.54,3.92-2.97,4.09-4.64.16-1.55-2.13-3.35-4.23-6.29-2.08,3.03-4.36,4.9-4.16,6.45Z"/>
      <path class="cls-3" d="M167.3,109.46c-25.76-.02-51.52,0-77.28,0v.03c-26.47,0-52.95-.07-79.42.04-8.86.04-11.91,4.23-10.1,12.73,5.45,25.56,10.91,51.12,16.12,76.73,1.26,6.21,4.58,9.1,10.73,9.1,6.68,0,13.36,0,20.04,0,34.59,0,69.17-.05,103.76.04,5.95.02,10.31-1.72,11.64-8.05,5.37-25.59,10.76-51.18,16.05-76.79,2.17-10.49-.69-13.83-11.55-13.84ZM89.73,167.3c-4.7,0-8.5-3.81-8.5-8.5s3.81-8.5,8.5-8.5,8.5,3.81,8.5,8.5-3.81,8.5-8.5,8.5Z"/>
    </g>
    <path class="cls-3" d="M55.32,39.99C54.71,15.79,70.85-.84,92.25.03c20.12.82,34.81,19.7,32.72,41.44-1.14,11.86-4.11,22.93-11.11,32.68-12.53,17.45-32.95,17.98-46.28,1.24-8.69-10.9-11.69-23.7-12.26-35.41ZM64.27,43.77c-.48-.11-.95-.23-1.43-.34-.89,1.61-2.75,3.38-2.51,4.79,1.69,10.03,5.25,19.34,12.74,26.61,10.98,10.66,25.58,9.97,35.83-1.6,8.29-9.36,11.33-20.69,12.14-31.82-8.45-3.62-5.46-14.48-12.68-18.38-11.27,6.61-23.21,5.56-34.91,1.06-6.19-2.38-8.6-.14-9.09,5.43-.41,4.72-.09,9.5-.09,14.26Z"/>
    <path class="cls-3" d="M90.61,210.49c22.16,0,44.32,0,66.48.02,2.13,0,4.35-.08,6.37.48,1.01.28,2.26,1.9,2.28,2.94.03,1.06-1.11,2.72-2.12,3.1-1.71.65-3.72.65-5.61.65-45.74.01-91.49-.01-137.23-.03-1.19,0-2.65.33-3.51-.23-1.35-.88-2.81-2.25-3.21-3.69-.2-.71,1.72-2.57,2.98-2.97,1.74-.56,3.76-.27,5.67-.27,22.63-.01,45.27,0,67.9,0Z"/>
    <path class="cls-3" d="M104.2,106.98c5.3-8.75,10.07-16.63,15.07-24.88,15.42,2.3,27.29,9.99,35.36,24.88h-50.43Z"/>
    <path class="cls-3" d="M25.33,106.99c8.24-14.79,19.98-22.69,35.6-24.91,4.48,8.27,8.82,16.28,13.49,24.91H25.33Z"/>
    <path class="cls-3" d="M91.32,107.12h-4.43c-2.42-4.72-4.65-9.08-7.06-13.79h18.52c-2.07,4.06-4.2,8.23-7.03,13.79Z"/>
  </g>
</svg>